<svg xmlns="http://www.w3.org/2000/svg" x="0px" y="0px" viewBox="0 0 490 490" fill="white">
    <g>
        <path d="M0,418.4h168V71.6H0C0,71.6,0,418.4,0,418.4z M84,318.5c-14,0-25.7-11.3-25.7-25.7c0-14,11.3-25.7,25.7-25.7 c14,0,25.7,11.3,25.7,25.7C109.3,306.8,98,318.5,84,318.5z M28,111.2h111.6v36.6H28V111.2z M28,182h111.6v36.6H28V182z"/>
        <path d="M198.7,79.3v217.4H490V79.3H198.7z M462.4,266.4H226.3V110.1h236.4L462.4,266.4L462.4,266.4z"/>
        <rect x="292.4" y="316.9" width="103.8" height="45.5"/>
        <rect x="257.8" y="382.3" width="172.7" height="28.4"/>
        <polygon points="330.6,239.2 358.2,239.2 358.2,202.2 395.5,202.2 395.5,174.2 358.2,174.2 358.2,137.3 330.6,137.3 330.6,174.2 293.6,174.2 293.6,202.2 330.6,202.2 			"/>
    </g>
</svg>
